<svg xmlns="http://www.w3.org/2000/svg" class="font" viewBox="0 0 304.459 60"><g id="53fdf9de-4885-437b-8be7-2902a86735bf" fill="#000"><path d="M2.37 14.03L2.37 17.18L1.46 17.18L1.46 8.43L4.69 8.43L4.69 8.43Q5.53 8.43 5.99 8.69L5.99 8.69L5.99 8.69Q6.44 8.95 6.63 9.55L6.63 9.55L6.63 9.55Q6.82 10.16 6.82 11.28L6.82 11.28L6.82 11.28Q6.82 12.31 6.64 12.90L6.64 12.90L6.64 12.90Q6.45 13.50 6.03 13.76L6.03 13.76L6.03 13.76Q5.61 14.03 4.90 14.03L4.90 14.03L2.37 14.03ZM2.37 13.24L4.76 13.24L4.76 13.24Q5.39 13.24 5.63 13.12L5.63 13.12L5.63 13.12Q5.87 12.99 5.87 12.66L5.87 12.66L5.87 9.77L5.87 9.77Q5.87 9.44 5.63 9.31L5.63 9.31L5.63 9.31Q5.39 9.18 4.76 9.18L4.76 9.18L2.37 9.18L2.37 13.24ZM10.71 16.52L10.71 16.52Q11.27 16.52 11.80 16.45L11.80 16.45L11.80 16.45Q12.33 16.38 13.12 16.18L13.12 16.18L13.24 16.90L13.24 16.90Q12.80 17.08 12.04 17.19L12.04 17.19L12.04 17.19Q11.28 17.29 10.47 17.29L10.47 17.29L10.47 17.29Q9.44 17.29 8.95 17.00L8.95 17.00L8.95 17.00Q8.46 16.72 8.28 15.97L8.28 15.97L8.28 15.97Q8.11 15.23 8.11 13.68L8.11 13.68L8.11 13.68Q8.11 12.21 8.33 11.45L8.33 11.45L8.33 11.45Q8.55 10.70 9.12 10.38L9.12 10.38L9.12 10.38Q9.69 10.07 10.79 10.07L10.79 10.07L10.79 10.07Q11.87 10.07 12.43 10.23L12.43 10.23L12.43 10.23Q12.98 10.40 13.20 10.82L13.20 10.82L13.20 10.82Q13.43 11.24 13.43 12.07L13.43 12.07L13.43 12.07Q13.43 13.15 13.16 13.57L13.16 13.57L13.16 13.57Q12.89 14 12.05 14.13L12.05 14.13L12.05 14.13Q11.20 14.27 9.04 14.27L9.04 14.27L9.04 16.32L9.04 16.32Q9.69 16.52 10.71 16.52L10.71 16.52ZM10.26 10.91L10.26 10.91Q9.55 10.91 9.30 11.10L9.30 11.10L9.30 11.10Q9.04 11.28 9.04 11.82L9.04 11.82L9.04 13.52L11.35 13.52L11.35 13.52Q12.08 13.52 12.34 13.34L12.34 13.34L12.34 13.34Q12.60 13.16 12.60 12.63L12.60 12.63L12.60 10.91L10.26 10.91ZM18.34 17.29L18.34 17.29Q17.09 17.29 16.52 17.02L16.52 17.02L16.52 17.02Q15.95 16.74 15.74 16.01L15.74 16.01L15.74 16.01Q15.54 15.27 15.54 13.68L15.54 13.68L15.54 13.68Q15.54 12.08 15.74 11.35L15.74 11.35L15.74 11.35Q15.95 10.61 16.52 10.34L16.52 10.34L16.52 10.34Q17.09 10.07 18.34 10.07L18.34 10.07L18.34 10.07Q19.60 10.07 20.17 10.33L20.17 10.33L20.17 10.33Q20.75 10.60 20.94 11.33L20.94 11.33L20.94 11.33Q21.14 12.07 21.14 13.68L21.14 13.68L21.14 13.68Q21.14 15.27 20.94 16.01L20.94 16.01L20.94 16.01Q20.73 16.74 20.16 17.02L20.16 17.02L20.16 17.02Q19.59 17.29 18.34 17.29L18.34 17.29ZM16.46 16.48L19.53 16.48L19.53 16.48Q19.96 16.48 20.10 16.41L20.10 16.41L20.10 16.41Q20.24 16.35 20.24 16.14L20.24 16.14L20.24 10.88L17.18 10.88L17.18 10.88Q16.74 10.88 16.60 10.94L16.60 10.94L16.60 10.94Q16.46 11.00 16.46 11.21L16.46 11.21L16.46 16.48ZM26.63 10.07L26.63 10.07Q27.68 10.07 28.16 10.33L28.16 10.33L28.16 10.33Q28.64 10.60 28.81 11.33L28.81 11.33L28.81 11.33Q28.98 12.07 28.98 13.68L28.98 13.68L28.98 13.68Q28.98 15.30 28.80 16.06L28.80 16.06L28.80 16.06Q28.63 16.81 28.15 17.10L28.15 17.10L28.15 17.10Q27.66 17.39 26.63 17.39L26.63 17.39L26.63 17.39Q25.79 17.39 25.29 17.30L25.29 17.30L25.29 17.30Q24.79 17.22 24.50 17.00L24.50 17.00L24.50 19.56L23.59 19.71L23.59 10.18L23.97 10.18L24.22 10.75L24.22 10.75Q24.47 10.33 25.00 10.20L25.00 10.20L25.00 10.20Q25.54 10.07 26.63 10.07L26.63 10.07ZM28.06 16.24L28.06 10.88L25.17 10.88L25.17 10.88Q24.79 10.88 24.65 10.93L24.65 10.93L24.65 10.93Q24.50 10.98 24.50 11.12L24.50 11.12L24.50 16.58L27.37 16.58L27.37 16.58Q27.79 16.58 27.92 16.51L27.92 16.51L27.92 16.51Q28.06 16.45 28.06 16.24L28.06 16.24ZM32.24 16.48L32.24 16.48Q32.61 16.52 32.87 16.53L32.87 16.53L32.80 17.16L32.80 17.16Q32.41 17.29 32.10 17.29L32.10 17.29L32.10 17.29Q31.33 17.29 31.33 16.41L31.33 16.41L31.33 8.08L32.24 7.87L32.24 16.48ZM37.17 16.52L37.17 16.52Q37.73 16.52 38.26 16.45L38.26 16.45L38.26 16.45Q38.79 16.38 39.58 16.18L39.58 16.18L39.70 16.90L39.70 16.90Q39.26 17.08 38.50 17.19L38.50 17.19L38.50 17.19Q37.74 17.29 36.93 17.29L36.93 17.29L36.93 17.29Q35.90 17.29 35.41 17.00L35.41 17.00L35.41 17.00Q34.92 16.72 34.74 15.97L34.74 15.97L34.74 15.97Q34.57 15.23 34.57 13.68L34.57 13.68L34.57 13.68Q34.57 12.21 34.79 11.45L34.79 11.45L34.79 11.45Q35.01 10.70 35.58 10.38L35.58 10.38L35.58 10.38Q36.15 10.07 37.25 10.07L37.25 10.07L37.25 10.07Q38.33 10.07 38.88 10.23L38.88 10.23L38.88 10.23Q39.44 10.40 39.66 10.82L39.66 10.82L39.66 10.82Q39.89 11.24 39.89 12.07L39.89 12.07L39.89 12.07Q39.89 13.15 39.62 13.57L39.62 13.57L39.62 13.57Q39.35 14 38.51 14.13L38.51 14.13L38.51 14.13Q37.66 14.27 35.50 14.27L35.50 14.27L35.50 16.32L35.50 16.32Q36.15 16.52 37.17 16.52L37.17 16.52ZM36.72 10.91L36.72 10.91Q36.01 10.91 35.76 11.10L35.76 11.10L35.76 11.10Q35.50 11.28 35.50 11.82L35.50 11.82L35.50 13.52L37.81 13.52L37.81 13.52Q38.54 13.52 38.80 13.34L38.80 13.34L38.80 13.34Q39.06 13.16 39.06 12.63L39.06 12.63L39.06 10.91L36.72 10.91ZM50.88 17.18L50.22 15.02L46.59 15.02L45.93 17.18L45.02 17.18L47.74 8.43L49.07 8.43L51.79 17.18L50.88 17.18ZM46.83 14.24L49.98 14.24L48.47 9.23L48.34 9.23L46.83 14.24ZM54.42 14.03L54.42 17.18L53.51 17.18L53.51 8.43L56.74 8.43L56.74 8.43Q57.58 8.43 58.04 8.69L58.04 8.69L58.04 8.69Q58.49 8.95 58.68 9.55L58.68 9.55L58.68 9.55Q58.87 10.16 58.87 11.28L58.87 11.28L58.87 11.28Q58.87 12.31 58.69 12.90L58.69 12.90L58.69 12.90Q58.51 13.50 58.09 13.76L58.09 13.76L58.09 13.76Q57.67 14.03 56.95 14.03L56.95 14.03L54.42 14.03ZM54.42 13.24L56.81 13.24L56.81 13.24Q57.44 13.24 57.68 13.12L57.68 13.12L57.68 13.12Q57.92 12.99 57.92 12.66L57.92 12.66L57.92 9.77L57.92 9.77Q57.92 9.44 57.68 9.31L57.68 9.31L57.68 9.31Q57.44 9.18 56.81 9.18L56.81 9.18L54.42 9.18L54.42 13.24ZM60.63 8.43L61.54 8.43L61.54 17.18L60.63 17.18L60.63 8.43Z" transform="matrix(5.067567825317383,0,0,5.067567825317383,-7.398650169372559,-39.88175582885742)"/></g></svg>